<svg xmlns="http://www.w3.org/2000/svg" width="280" height="52" viewBox="0 0 280 52" fill="none"><mask id="mask0_3241_8820" style="mask-type:luminance" maskUnits="userSpaceOnUse" x="0" y="0" width="280" height="52"><path d="M279.366 0H0V51.9999H279.366V0Z" fill="white"></path></mask><g mask="url(#mask0_3241_8820)"><path d="M128.542 23.4991C128.947 21.5666 129.81 20.0129 131.11 18.8689C132.518 17.6243 134.331 16.9905 136.486 16.9905C138.641 16.9905 140.523 17.6166 141.877 18.8611C143.122 20.0052 143.846 21.5589 144.032 23.4991H128.542ZM147.043 15.0657C144.694 12.4066 141.123 11.0615 136.431 11.0615C133.529 11.0615 130.892 11.7109 128.597 12.9941C126.294 14.285 124.489 16.086 123.221 18.3664C121.952 20.639 121.314 23.2673 121.314 26.1892C121.314 29.1112 121.952 31.7394 123.221 33.9965C124.489 36.2614 126.301 38.0548 128.604 39.3148C130.9 40.5748 133.584 41.2087 136.595 41.2087C139.107 41.2087 141.434 40.7681 143.519 39.9023C145.604 39.0365 147.417 37.7842 148.903 36.1996C149.074 36.0218 149.074 35.7358 148.903 35.558L145.58 32.0486C145.495 31.9558 145.37 31.9017 145.238 31.9017C145.121 31.9017 144.981 31.9558 144.896 32.0486C143.9 33.0689 142.71 33.8729 141.364 34.4217C140.01 34.9783 138.571 35.2565 137.077 35.2565C134.914 35.2565 133.055 34.6459 131.553 33.4323C130.192 32.3346 129.227 30.835 128.698 28.9875H149.992C150.241 28.9875 150.451 28.7942 150.466 28.5469C150.536 27.4492 150.575 26.684 150.575 26.1892C150.575 21.443 149.393 17.7016 147.059 15.0657" fill="white"></path><path d="M245.834 40.884H239.618C239.354 40.884 239.143 40.6753 239.143 40.4125V11.6258C239.143 11.363 239.354 11.1543 239.618 11.1543H245.834C246.099 11.1543 246.309 11.363 246.309 11.6258V40.4125C246.309 40.6753 246.099 40.884 245.834 40.884Z" fill="white"></path><path d="M242.722 7.76096C244.877 7.76096 246.628 6.02171 246.628 3.88049C246.628 1.73927 244.877 0 242.722 0C240.567 0 238.817 1.73927 238.817 3.88049C238.817 6.02171 240.567 7.76096 242.722 7.76096Z" fill="white"></path><path d="M162.487 40.9926H156.216C155.951 40.9926 155.741 40.7839 155.741 40.5211V11.7344C155.741 11.4716 155.951 11.2629 156.216 11.2629H162.487C162.751 11.2629 162.961 11.4716 162.961 11.7344V15.7541C163.856 14.4554 164.961 13.4119 166.26 12.6388C168.026 11.5876 170.119 11.0542 172.484 11.0542C172.748 11.0542 172.958 11.2629 172.958 11.5257V17.8721C172.958 18.0035 172.904 18.1272 172.811 18.2122C172.717 18.305 172.593 18.3436 172.461 18.3436C169.73 18.2045 167.489 18.9388 165.824 20.3225C164.159 21.7062 163.195 23.6155 162.961 26.0195V40.5288C162.961 40.7916 162.751 41.0003 162.494 41.0003" fill="white"></path><path d="M184.916 40.992H178.646C178.381 40.992 178.171 40.7833 178.171 40.5205V0.571642C178.171 0.308821 178.381 0.100098 178.646 0.100098H184.916C185.181 0.100098 185.391 0.308821 185.391 0.571642V40.5205C185.391 40.7833 185.181 40.992 184.916 40.992Z" fill="white"></path><path d="M266.615 41.0929C263.713 41.0929 261.083 40.4591 258.811 39.1991C256.532 37.9391 254.727 36.1457 253.459 33.8808C252.191 31.6236 251.553 28.9954 251.553 26.0735C251.553 23.1515 252.198 20.4692 253.459 18.1966C254.727 15.9162 256.532 14.1229 258.811 12.8551C261.091 11.5874 263.713 10.9458 266.615 10.9458C269.229 10.9458 271.61 11.3632 273.687 12.1981C275.772 13.0329 277.538 14.2465 278.931 15.808C279.086 15.9858 279.086 16.2486 278.931 16.4264L275.5 20.4383C275.414 20.5388 275.29 20.6006 275.157 20.6006C275.017 20.6006 274.893 20.5542 274.799 20.4615C272.792 18.3976 270.201 17.354 267.089 17.354C264.662 17.354 262.647 18.1657 261.091 19.7581C259.527 21.3582 258.741 23.4839 258.741 26.0735C258.741 28.663 259.512 30.7733 261.029 32.3812C262.561 34.0045 264.475 34.7929 266.879 34.7929C270.419 34.7929 273.173 33.6876 275.056 31.5C275.142 31.3995 275.266 31.3376 275.399 31.3376C275.531 31.3376 275.655 31.384 275.749 31.4768L279.234 34.9398C279.398 35.1021 279.421 35.365 279.273 35.5583C277.919 37.3362 276.145 38.7275 273.998 39.6783C271.866 40.6291 269.385 41.1084 266.615 41.1084" fill="white"></path><path d="M66.7062 23.4991C67.1108 21.5666 67.9744 20.0129 69.2737 18.8689C70.6819 17.6243 72.4946 16.9905 74.6497 16.9905C76.8048 16.9905 78.6875 17.6166 80.0413 18.8611C81.2861 20.0052 82.0096 21.5589 82.1963 23.4991H66.714H66.7062ZM85.2072 15.0657C82.8577 12.4066 79.2866 11.0615 74.5952 11.0615C71.6933 11.0615 69.0558 11.7109 66.7607 12.9941C64.4578 14.285 62.6528 16.086 61.3847 18.3664C60.1165 20.639 59.4786 23.2673 59.4786 26.1892C59.4786 29.1112 60.1165 31.7394 61.3847 33.9965C62.6528 36.2614 64.4656 38.0548 66.7685 39.3148C69.0636 40.5748 71.7477 41.2087 74.7586 41.2087C77.2716 41.2087 79.5978 40.7681 81.6829 39.9023C83.7679 39.0365 85.5807 37.7842 87.0667 36.1996C87.2378 36.0218 87.2378 35.7358 87.0667 35.558L83.7446 32.0486C83.659 31.9558 83.5345 31.9017 83.4023 31.9017C83.2856 31.9017 83.1455 31.9558 83.0599 32.0486C82.0641 33.0689 80.8737 33.8729 79.5278 34.4217C78.1741 34.9783 76.7347 35.2565 75.241 35.2565C73.0781 35.2565 71.2187 34.6459 69.7171 33.4323C68.3556 32.3346 67.3909 30.835 66.8619 28.9875H88.1559C88.4048 28.9875 88.6149 28.7942 88.6305 28.5469C88.7005 27.4492 88.7394 26.684 88.7394 26.1892C88.7394 21.443 87.5568 17.7016 85.2228 15.0657" fill="white"></path><path d="M201.861 37.0652L197.178 49.3251C197.077 49.5802 197.178 49.8507 197.403 49.9435L202.686 51.9765C202.912 52.0615 203.168 51.9301 203.27 51.6828L208.988 37.0498L201.861 37.073V37.0652Z" fill="white"></path><path d="M218.729 11.4715C218.643 11.3401 218.495 11.2705 218.34 11.2705H212.077C211.874 11.2705 211.695 11.3942 211.633 11.5874L203.954 31.6392L196.275 11.5874C196.205 11.4019 196.026 11.2705 195.832 11.2705H189.569C189.413 11.2705 189.266 11.3478 189.18 11.4715C189.094 11.6029 189.071 11.7652 189.125 11.9044L200.422 40.892C200.492 41.0698 200.586 40.9925 200.78 40.9925L200.866 41.1935L203.962 40.9925H207.136C207.331 40.9925 207.51 40.8765 207.58 40.691L218.799 11.9044C218.853 11.7575 218.838 11.5952 218.744 11.4715" fill="white"></path><path d="M119.883 11.3865C119.797 11.2551 119.65 11.1855 119.494 11.1855H113.231C113.029 11.1855 112.85 11.3092 112.788 11.5025L105.109 31.5542L97.4297 11.5025C97.3596 11.317 97.1807 11.1855 96.9862 11.1855H90.7233C90.5677 11.1855 90.4198 11.2629 90.3342 11.3865C90.2487 11.5179 90.2253 11.6803 90.2798 11.8194L101.499 40.6061C101.569 40.7838 101.748 40.9075 101.942 40.9075H108.298C108.493 40.9075 108.672 40.7916 108.742 40.6061L119.961 11.8194C120.015 11.6725 120 11.5102 119.906 11.3865" fill="white"></path><path d="M233.9 34.4917C233.9 34.4917 233.884 34.4376 233.884 34.4144V34.113C233.884 33.9816 233.83 33.8579 233.736 33.7651C233.705 33.7342 233.503 33.7033 233.355 33.6801C233.083 33.6337 232.686 33.595 232.538 33.5486C230.85 33.0153 230.274 32.2655 229.994 30.6808C229.885 30.0624 229.831 29.3435 229.8 28.6478V18.3592H233.425C233.69 18.3592 233.9 18.1504 233.9 17.8876V11.719C233.9 11.4562 233.69 11.2475 233.425 11.2475H229.8V4.93981C229.8 4.67698 229.59 4.46826 229.325 4.46826H223.054C222.79 4.46826 222.58 4.67698 222.58 4.93981V30.1242C222.58 30.1242 222.564 30.6499 222.58 31.6161C222.626 33.9274 223.179 38.2253 226.804 40.0264C228.998 40.8767 231.239 41.2014 233.464 40.9077C233.48 40.9077 233.487 40.8999 233.503 40.8922C233.729 40.8535 233.908 40.668 233.908 40.4361V34.4685L233.9 34.4917Z" fill="white"></path><path d="M52.5154 25.6251H52.5076C52.2976 11.4869 40.7131 0.0851129 26.4133 0.0078125H0.00779343V25.602H0.0155722C0.0155722 25.7411 0.00779343 25.8725 0.00779343 26.0039C0.00779343 40.3586 11.7635 52 26.2655 52C40.7675 52 52.5232 40.3586 52.5232 26.0039C52.5232 25.8802 52.5232 25.7566 52.5154 25.6329H52.5232L52.5154 25.6251Z" fill="#92D400"></path><path d="M15.6768 12.5688H35.8505C37.4377 12.5688 38.7292 13.8443 38.7292 15.4135C38.7292 16.9827 37.4377 18.2582 35.8505 18.2582H15.6768C14.0897 18.2582 12.7982 16.9827 12.7982 15.4135C12.7982 13.8443 14.0897 12.5688 15.6768 12.5688Z" fill="white"></path><path d="M15.6768 32.5591H35.8505C37.4377 32.5591 38.7292 33.8345 38.7292 35.4037C38.7292 36.9729 37.4377 38.2484 35.8505 38.2484H15.6768C14.0897 38.2484 12.7982 36.9729 12.7982 35.4037C12.7982 33.8345 14.0897 32.5591 15.6768 32.5591Z" fill="white"></path><path d="M15.6768 22.5483H35.8505C37.4377 22.5483 38.7292 23.8238 38.7292 25.393C38.7292 26.9622 37.4377 28.2376 35.8505 28.2376H15.6768C14.0897 28.2376 12.7982 26.9622 12.7982 25.393C12.7982 23.8238 14.0897 22.5483 15.6768 22.5483Z" fill="white"></path></g></svg>