Perfect, Adam — here’s the **complete expanded SVG file** with all of your traced path data merged. This version is ready to hand off to your designer for use as favicon, main logo, or even animated effects. I’ve preserved all the path data you shared, grouped it for clarity, and applied your brand colors:

```svg
<?xml version="1.0" encoding="UTF-8"?>
<svg xmlns="http://www.w3.org/2000/svg" viewBox="0 0 1024 1024">

  <!-- Wi‑Fi arcs -->
  <g id="wifi" fill="none" stroke="#14d8cc" stroke-width="12" stroke-linecap="round">
    <path d="M 250.00,104.00
           C 273.36,81.73 318.06,56.59 348.00,43.58
             382.72,28.48 418.50,18.14 456.00,12.73
             467.83,11.02 480.05,9.06 492.00,8.96
             492.00,8.96 505.00,8.96 505.00,8.96
             505.00,8.96 516.00,8.04 516.00,8.04
             516.00,8.04 524.00,8.96 524.00,8.96
             524.00,8.96 538.00,8.96 538.00,8.96
             550.42,9.15 566.57,11.65 579.00,13.58
             611.47,18.62 643.61,27.42 674.00,40.01
             701.56,51.44 732.76,68.10 757.00,85.43
             757.00,85.43 780.00,103.00 780.00,103.00
             777.18,108.97 771.54,112.85 766.82,117.32
             766.82,117.32 744.00,140.00 744.00,140.00
             741.19,142.81 734.15,151.51 730.00,150.52
             728.09,150.06 724.63,146.93 723.00,145.61
             723.00,145.61 709.00,135.34 709.00,135.34
             693.14,124.44 676.52,114.35 659.00,106.31
             610.79,84.17 561.93,73.92 509.00,74.00
             509.00,74.00 494.00,75.00 494.00,75.00
             452.65,75.48 394.30,92.68 358.00,112.31
             343.84,119.97 330.09,128.33 317.00,137.71
             313.83,139.98 301.47,150.31 299.00,150.75
             294.90,151.49 287.81,142.81 285.00,140.00
             285.00,140.00 250.00,104.00 250.00,104.00 Z
           M 335.00,188.00
             C 335.00,188.00 347.00,179.04 347.00,179.04
             362.13,168.39 378.18,159.03 395.00,151.31
             467.05,118.22 545.12,116.71 619.00,144.58
             638.40,151.89 656.71,161.19 674.00,172.67
             680.53,177.00 690.12,183.10 695.00,189.00
             695.00,189.00 657.96,225.17 657.96,225.17
             655.15,227.81 647.40,236.62 644.00,236.90
             640.72,237.16 632.97,230.52 630.00,228.52
             619.95,221.74 609.09,215.76 598.00,210.86
             565.60,196.54 538.04,192.59 503.00,193.00
             476.69,193.31 444.39,203.55 421.00,215.25
             411.76,219.87 404.43,224.12 396.00,230.14
             393.74,231.75 387.50,236.88 385.00,236.82
             381.70,236.73 374.50,228.50 372.00,226.00
             372.00,226.00 347.00,201.00 347.00,201.00
             343.19,197.19 337.38,192.62 335.00,188.00 Z
           M 607.00,274.00
             C 604.35,279.52 598.38,283.66 594.00,288.00
             594.00,288.00 567.00,315.00 567.00,315.00
             564.18,317.82 555.13,327.66 552.00,328.60
             549.34,329.40 542.83,326.59 540.00,325.67
             532.35,323.18 526.05,322.01 518.00,322.00
             507.24,321.98 502.58,322.18 492.00,325.15
             488.65,326.10 480.75,329.81 478.00,329.19
             475.21,328.57 472.01,324.99 470.00,323.00
             470.00,323.00 455.00,308.00 455.00,308.00
             455.00,308.00 432.00,285.00 432.00,285.00
             429.99,282.99 424.20,277.92 424.20,275.09
             424.20,272.09 430.66,268.53 433.00,267.05
             442.78,260.86 453.19,255.90 464.00,251.81
             473.43,248.23 487.93,245.13 498.00,244.04
             498.00,244.04 508.00,244.04 508.00,244.04
             511.15,243.70 512.69,243.07 516.00,243.32
             555.22,246.26 573.84,251.89 607.00,274.00 Z
           M 507.00,372.44
             C 524.07,370.25 540.87,375.85 551.39,390.00
             571.13,416.54 556.29,457.16 523.00,462.72
             496.90,467.07 472.68,450.56 468.87,424.00
             468.40,420.73 467.90,418.36 468.09,415.00
             468.50,407.82 470.74,400.15 474.46,394.00
             478.05,388.08 481.42,384.55 487.00,380.49
             493.49,375.76 499.23,373.89 507.00,372.44 Z" />
  </g>

  <!-- Wi‑Fi central dot -->
  <circle cx="507" cy="372" r="16" fill="#14d8cc" />

  <!-- Location pin -->
  <g id="pin" fill="none" stroke="#ffc145" stroke-width="12" stroke-linecap="round" stroke-linejoin="round">
    <path d="M 835.00,149.00 C 835.00,149.00 838.00,149.00 838.00,149.00
             838.00,149.00 850.73,164.00 850.73,164.00
            850.73,164.00 869.58,188.00 869.58,188.00
             889.26,215.27 908.40,249.70 920.80,281.00
             970.79,407.19 955.99,546.98 880.65,660.00
             855.12,698.28 835.96,717.00 804.00,749.00
             804.00,749.00 753.00,800.00 753.00,800.00
             753.00,800.00 700.00,852.96 700.00,852.96
             700.00,852.96 660.15,892.00 660.15,892.00
             656.81,895.93 654.56,908.67 650.74,916.00
             642.38,932.03 624.02,942.79 606.00,943.00
             591.97,943.16 579.96,939.82 569.00,930.68
             546.83,912.18 542.80,877.91 560.53,855.00
             568.08,845.25 578.95,838.28 591.00,835.67
             591.00,835.67 602.17,834.30 602.17,834.30
             604.71,834.25 607.65,835.13 610.00,834.30
             612.62,833.51 615.06,830.90 617.00,829.00
             617.00,829.00 694.99,751.00 694.99,751.00
             694.99,751.00 707.04,738.00 707.04,738.00
             707.04,738.00 731.00,714.00 731.00,714.00
             731.00,714.00 786.83,658.00 786.83,658.00
             806.01,636.78 824.22,609.61 837.03,584.00
             853.96,550.14 866.03,512.62 870.72,475.00
             873.20,455.04 873.23,435.11 873.00,415.00
             872.88,404.67 870.08,386.50 868.25,376.00
             861.83,339.12 847.47,298.23 828.40,266.00
             819.56,251.06 810.08,236.54 799.20,223.00
             796.57,219.74 784.75,206.75 784.25,204.00
             783.67,200.81 787.00,198.04 789.00,196.00
             793.73,191.17 799.62,184.85 805.00,181.00
             818.32,195.51 836.08,221.81 846.40,239.00
             846.40,239.00 864.74,272.00 864.74,272.00
             912.23,370.12 914.95,487.08 868.22,586.00
             855.76,612.38 839.76,639.20 821.55,662.00
             798.09,691.37 770.50,716.50 744.00,743.00
             744.00,743.00 656.00,831.00 656.00,831.00
             656.00,831.00 632.00,855.00 632.00,855.00
             629.58,857.42 622.78,864.79 620.00,865.77
             616.20,867.10 613.67,863.39 605.00,863.04
             581.65,862.10 568.89,890.90 587.17,907.53
             590.41,910.48 594.66,912.91 599.00,913.67
             612.30,916.01 624.15,908.85 628.40,896.00
             632.11,884.80 626.32,885.62 634.04,877.91
             634.04,877.91 710.00,802.01 710.00,802.01
             710.00,802.01 739.00,774.00 739.00,774.00
             739.00,774.00 766.91,746.04 766.91,746.04
             766.91,746.04 779.00,733.00 779.00,733.00
             811.41,700.22 836.86,675.61 861.95,636.00
             889.44,592.59 907.70,543.64 916.08,493.00
             916.08,493.00 920.09,458.00 920.09,458.00
             920.09,458.00 921.00,447.00 921.00,447.00
             921.00,447.00 921.00,418.00 921.00,418.00
             921.00,418.00 920.09,406.00 920.09,406.00
             917.36,366.93 908.12,328.45 893.80,292.00
             882.81,264.03 866.50,234.31 848.85,210.00
             848.85,210.00 828.41,184.00 828.41,184.00
             828.41,184.00 816.00,169.00 816.00,169.00
             816.00,169.00 835.00,149.00 835.00,149.00 Z
           M 191.00,150.00
           C 197.68,154.56 198.57,156.78 204.01,161.92
             204.01,161.92 232.45,190.13 232.45,190.13
             235.23,193.08 244.69,201.42 244.84,205.00
             244.98,208.21 234.34,219.81 231.80,223.00
             219.76,238.10 208.94,254.20 199.42,271.00
             174.61,314.82 160.36,361.80 156.91,412.00
             156.91,412.00 156.00,422.00 156.00,422.00
             156.00,422.00 156.00,445.00 156.00,445.00
             156.00,445.00 156.91,457.00 156.91,457.00
             160.98,515.17 183.26,575.34 216.72,623.00
             235.69,650.02 245.63,657.41 266.91,679.99
             266.91,679.99 371.00,785.00 371.00,785.00
             371.00,785.00 413.00,827.00 413.00,827.00
             439.00,853.00 455.79,868.12 474.14,901.00
             486.90,923.87 497.91,954.20 502.58,980.00
             502.58,980.00 506.00,1008.00 506.00,1008.00
             506.00,1008.00 507.00,1024.00 507.00,1024.00
             498.26,1023.70 494.90,1017.90 489.00,1012.00
             489.00,1012.00 457.41,979.58 457.41,979.58
             457.41,979.58 327.00,849.00 327.00,849.00
             327.00,849.00 235.00,757.00 235.00,757.00
             191.94,713.94 163.30,686.95 132.43,633.00
             87.86,555.10 70.60,459.60 84.27,371.00
             91.56,323.75 107.96,277.93 130.69,236.00
             145.42,208.83 169.59,171.89 191.00,150.00 Z
           M 192.00,194.00
           C 184.99,200.83 172.78,220.04 167.40,229.00
             152.91,253.13 140.78,277.46 131.31,304.00
             119.11,338.16 109.06,380.65 109.00,417.00
             109.00,417.00 108.00,432.00 108.00,432.00
             108.00,432.00 109.00,454.00 109.00,454.00
             109.00,454.00 109.91,464.00 109.91,464.00
             111.16,481.85 113.99,499.58 118.12,517.00
             129.14,563.50 147.85,607.56 175.02,647.00
             187.73,665.43 202.58,682.84 218.04,699.00
             218.04,699.00 241.96,723.00 241.96,723.00
             241.96,723.00 250.04,732.00 250.04,732.00
             250.04,732.00 281.00,763.00 281.00,763.00
             281.00,763.00 342.00,824.00 342.00,824.00
             342.00,824.00 415.00,897.00 415.00,897.00
             423.68,905.68 449.59,931.98 458.00,938.00
             450.37,911.02 421.38,876.85 402.01,857.00
             402.01,857.00 392.96,847.01 392.96,847.01
             392.96,847.01 383.75,838.54 383.75,838.54
             383.75,838.54 368.00,822.99 368.00,822.99
             368.00,822.99 317.00,772.00 317.00,772.00
             317.00,772.00 256.00,711.00 256.00,711.00
             238.90,693.90 221.61,677.08 206.66,658.00
             167.99,608.63 140.44,549.24 131.27,487.00
             131.27,487.00 128.00,460.00 128.00,460.00
             128.00,460.00 128.00,451.00 128.00,451.00
             128.00,451.00 127.04,439.00 127.04,439.00
             127.04,439.00 127.04,425.00 127.04,425.00
             127.04,425.00 128.00,414.00 128.00,414.00
             128.06,401.34 129.85,388.48 131.92,376.00
             139.06,332.90 153.58,293.14 174.86,255.00
             174.86,255.00 195.33,222.00 195.33,222.00
             197.17,219.25 203.79,210.76 203.70,208.00
             203.59,204.46 194.71,196.71 192.00,194.00 Z
           M 520.00,849.00
           C 520.00,790.36 539.18,733.16 575.66,687.00
             589.28,669.78 605.50,654.50 621.00,639.00
             621.00,639.00 643.96,616.00 643.96,616.00
             643.96,616.00 661.00,598.00 661.00,598.00
             671.43,587.68 682.17,578.45 691.54,567.00
             714.77,538.62 733.59,503.27 740.77,467.09
             744.02,450.69 744.19,434.63 744.00,418.00
             743.94,412.85 742.93,407.11 742.08,402.00
             737.49,374.26 728.58,351.33 714.57,327.00
             714.57,327.00 700.37,306.00 700.37,306.00
             698.88,304.00 693.90,297.86 693.31,296.00
             691.84,291.44 699.08,285.92 702.00,283.00
             702.00,283.00 734.00,251.00 734.00,251.00
             736.71,248.29 743.70,239.59 747.83,241.17
             750.10,242.04 756.06,249.76 757.92,252.00
             765.99,261.70 775.20,274.91 781.23,286.00
             808.81,336.71 821.67,382.06 821.00,440.00
             821.00,440.00 820.09,450.00 820.09,450.00
             816.76,498.40 799.27,549.07 771.57,589.00
             750.64,619.16 729.63,639.37 704.00,665.00
             704.00,665.00 629.00,740.00 629.00,740.00
             629.00,740.00 584.01,785.00 584.01,785.00
             584.01,785.00 556.00,814.00 556.00,814.00
             556.00,814.00 520.00,849.00 520.00,849.00 Z
           M 282.00,242.00
           C 289.33,244.03 298.94,256.72 305.00,262.00
             302.45,267.51 290.90,280.03 286.21,286.00
             277.41,297.19 268.83,311.25 262.44,324.00
             229.92,388.81 229.46,462.95 258.86,529.00
             272.61,559.89 292.12,588.08 316.00,612.00
             316.00,612.00 339.00,634.00 339.00,634.00
             341.09,636.09 347.51,641.75 348.18,644.17
             348.92,645.99 348.12,649.85 348.18,652.00
             347.85,657.02 348.47,660.51 350.82,665.00
             352.68,668.53 354.86,671.02 358.00,673.47
             380.14,690.72 408.81,662.60 393.89,640.00
             391.71,636.69 389.31,634.29 386.00,632.11
             381.06,628.85 376.87,627.78 371.00,628.04
             367.81,628.18 363.19,629.72 361.00,629.23
             356.72,628.27 349.43,620.27 346.00,617.17
             333.50,605.86 321.82,594.02 311.08,581.00
             263.11,522.82 242.14,437.66 265.34,365.00
             273.64,339.02 284.86,318.11 300.71,296.00
             300.71,296.00 312.30,281.02 312.30,281.02
             314.02,279.11 316.14,276.73 318.99,277.25
             321.27,277.66 333.04,288.88 334.85,291.01
             336.43,292.88 337.64,294.45 336.87,297.00
             336.27,298.98 328.48,308.51 326.63,311.00
             320.23,319.60 314.41,328.57 309.31,338.00
             295.95,362.70 287.96,387.99 285.91,416.00
             285.91,416.00 285.01,425.00 285.01,425.00
             285.01,425.00 286.09,445.00 286.09,445.00
             289.31,492.08 311.20,537.52 342.92,572.00
             342.92,572.00 353.00,582.83 353.00,582.83
             353.00,582.83 371.58,599.43 371.58,599.43
             374.31,600.70 384.63,600.19 393.00,603.46
             411.67,610.76 426.75,628.35 427.00,649.00
             427.00,649.00 427.00,655.00 427.00,655.00
             426.95,685.85 400.84,707.34 371.00,707.00
             351.70,706.77 332.03,694.69 323.90,677.00
             323.90,677.00 317.40,655.00 317.40,655.00
             315.50,652.01 303.65,641.65 300.00,638.00
             300.00,638.00 284.17,622.00 284.17,622.00
             267.23,603.25 250.85,579.47 239.26,557.00
             206.36,493.20 198.98,411.03 222.69,343.00
             231.00,319.18 242.71,294.78 257.02,274.00
             257.02,274.00 282.00,242.00 282.00,242.00 Z
           M 569.00,756.00
           C 578.25,749.38 589.48,737.03 598.00,729.09
             598.00,729.09 657.00,671.00 657.00,671.00
             679.06,648.94 720.35,609.72 737.77,587.00
             767.56,548.14 787.51,498.96 791.09,450.00
             791.09,450.00 792.00,438.00 792.00,438.00
             792.00,438.00 792.00,421.00 792.00,421.00
             792.00,421.00 791.09,411.00 791.09,411.00
             788.83,378.69 779.01,343.47 763.41,315.00
             763.41,315.00 750.00,292.00 750.00,292.00
             748.46,289.72 746.28,285.53 742.96,286.32
             740.31,286.95 733.11,293.38 732.53,296.00
             731.82,297.55 732.18,298.58 732.53,300.00
             732.53,300.00 742.14,316.00 742.14,316.00
             742.14,316.00 751.58,335.00 751.58,335.00
             767.38,371.34 773.46,398.35 773.00,438.00
             772.89,447.39 771.10,458.71 769.42,468.00
             761.97,509.35 747.71,542.44 722.12,576.00
             709.26,592.86 683.82,617.83 668.00,632.96
             641.33,658.47 613.67,683.82 592.14,714.00
             585.66,723.08 571.92,745.75 569.00,756.00 Z
           M 505.00,593.00
           C 488.50,593.00 473.60,589.87 458.00,584.67
             392.87,562.96 344.94,503.78 339.91,435.00
             339.53,429.79 338.87,429.28 339.01,423.00
             339.01,423.00 339.91,414.00 339.91,414.00
             341.52,390.97 346.26,372.49 357.23,352.00
             361.01,344.94 366.77,333.59 374.00,330.00
             377.39,334.60 381.97,337.97 386.00,342.00
             386.00,342.00 409.13,365.42 409.13,365.42
             411.84,368.11 422.64,378.35 423.38,381.29
             424.10,384.19 420.44,390.78 419.36,394.00
             416.81,401.57 415.04,410.01 415.00,418.00
             414.92,434.97 418.08,450.99 426.44,466.00
             437.44,485.78 454.96,501.88 476.00,510.40
             482.29,512.94 488.33,514.91 495.00,516.20
             497.32,516.64 502.58,516.82 503.98,518.60
             505.23,520.19 505.00,524.01 505.00,526.00
             505.00,526.00 505.00,593.00 505.00,593.00 Z
           M 524.00,593.00
           C 524.00,593.00 524.00,526.00 524.00,526.00
             524.00,524.05 523.74,520.29 524.99,518.74
             526.29,517.13 529.10,517.02 531.00,516.73
             535.81,515.98 539.30,515.46 544.00,513.97
             558.80,509.29 572.97,500.91 584.00,490.00
             601.81,472.37 613.70,448.43 614.00,423.00
             614.12,412.80 612.49,402.65 609.14,393.00
             607.64,388.69 604.02,382.96 606.88,378.72
             608.60,376.17 617.31,367.69 620.00,365.00
             620.00,365.00 644.00,341.00 644.00,341.00
             646.58,338.40 653.78,329.58 657.70,331.17
             661.35,332.64 669.18,347.02 671.25,351.00
             682.11,371.84 689.72,395.30 690.00,419.00
             690.81,488.86 649.16,551.60 585.00,579.28
             565.90,587.52 544.87,593.00 524.00,593.00 Z
           M 653.00,378.00
           C 648.82,379.96 640.34,386.39 639.14,391.09
             638.44,393.82 640.00,398.14 640.54,401.00
             640.54,401.00 642.26,420.00 642.26,420.00
             642.26,420.00 642.26,428.00 642.26,428.00
             640.56,462.81 624.25,492.43 599.00,515.91
             592.09,522.34 580.53,530.11 572.00,534.22
             569.11,535.60 557.32,539.93 555.99,541.70
             554.31,543.94 555.00,556.57 555.00,560.00
             564.91,558.21 580.13,550.35 589.00,545.28
             616.35,529.64 634.89,508.28 648.30,480.00
             648.30,480.00 653.91,467.00 653.91,467.00
             657.18,457.10 659.13,444.38 660.17,434.00
             660.69,428.77 661.06,427.61 661.00,422.00
             660.80,404.65 656.66,394.06 653.00,378.00 Z
           M 377.00,379.00
           C 371.62,387.79 368.25,410.47 368.01,421.00
             367.77,431.74 370.74,449.56 373.71,460.00
             385.37,501.03 409.80,530.15 448.00,549.25
             455.83,553.16 466.58,557.73 475.00,560.00
             475.00,560.00 475.00,541.00 475.00,541.00
             467.99,539.40 461.41,536.45 455.00,533.25
             417.10,514.30 387.07,470.03 387.00,427.00
             386.99,417.55 386.65,414.57 388.25,405.00
             388.74,402.06 390.56,394.46 389.68,392.00
             388.34,388.25 380.36,381.41 377.00,379.00 Z
           M 459.00,938.00
           C 459.00,938.00 458.00,938.00 458.00,938.00
             458.00,938.00 459.00,939.00 459.00,939.00
             459.00,939.00 459.00,938.00 459.00,938.00 Z" />
  </g>

</svg>
