<?xml version="1.0" encoding="UTF-8" standalone="no"?>
<!DOCTYPE svg PUBLIC "-//W3C//DTD SVG 20010904//EN"
              "http://www.w3.org/TR/2001/REC-SVG-20010904/DTD/svg10.dtd">

<svg xmlns="http://www.w3.org/2000/svg"
     width="14.6667in" height="13.7778in"
     viewBox="0 0 1056 992">
  <path id="Selection"
        fill="#14D8CC" stroke="#14D8CC" stroke-width="1"
        d="M 150.00,570.00
           C 145.56,566.60 141.96,549.95 140.29,544.00
             132.83,517.35 128.32,489.65 128.00,462.00
             128.00,462.00 127.01,449.00 127.01,449.00
             127.01,449.00 128.00,436.00 128.00,436.00
             128.00,436.00 128.00,426.00 128.00,426.00
             128.02,413.36 132.74,384.88 135.58,372.00
             147.04,320.03 168.56,271.90 200.15,229.00
             250.48,160.67 328.85,108.68 412.00,90.66
             429.07,86.96 446.58,84.28 464.00,83.00
             464.00,83.00 473.00,83.00 473.00,83.00
             473.00,83.00 491.00,82.00 491.00,82.00
             491.00,82.00 503.00,82.96 503.00,82.96
             503.00,82.96 515.00,82.96 515.00,82.96
             527.43,83.15 565.25,89.95 578.00,93.28
             615.82,103.17 652.49,119.50 685.00,141.20
             685.00,141.20 712.00,161.00 712.00,161.00
             712.00,161.00 710.11,174.00 710.11,174.00
             704.45,199.10 691.23,221.03 672.00,238.05
             664.19,244.96 651.60,254.04 641.00,255.00
             636.66,233.43 631.64,215.35 618.79,197.00
             600.07,170.26 564.69,152.05 532.00,152.00
             532.00,152.00 490.00,152.00 490.00,152.00
             490.00,152.00 470.00,153.84 470.00,153.84
             429.47,158.17 385.25,171.49 349.00,190.11
             316.39,206.85 288.88,225.96 262.00,250.91
             262.00,250.91 252.01,260.00 252.01,260.00
             214.22,298.29 183.52,348.94 166.51,400.00
             166.51,400.00 162.12,415.00 162.12,415.00
             154.94,438.71 148.28,475.36 148.00,500.00
             148.00,500.00 147.02,511.00 147.02,511.00
             147.02,511.00 147.02,528.00 147.02,528.00
             147.02,528.00 148.00,540.00 148.00,540.00
             148.00,540.00 148.00,549.00 148.00,549.00
             148.00,549.00 150.00,570.00 150.00,570.00 Z
           M 727.00,174.00
           C 734.65,176.08 744.59,186.33 751.00,191.58
             760.78,199.57 776.68,209.79 788.00,215.50
             813.14,228.18 840.03,237.71 868.00,241.93
             868.00,241.93 876.00,241.93 876.00,241.93
             876.00,241.93 894.00,243.99 894.00,243.99
             894.00,243.99 907.00,243.09 907.00,243.09
             907.00,243.09 926.00,241.83 926.00,241.83
             926.00,241.83 953.00,238.00 953.00,238.00
             952.20,255.29 944.79,272.38 936.00,287.00
             914.75,322.33 877.28,346.84 837.00,354.39
             830.03,355.69 823.10,356.99 816.00,357.00
             816.00,357.00 762.00,357.00 762.00,357.00
             762.00,357.00 666.00,357.00 666.00,357.00
             666.00,357.00 593.00,357.00 593.00,357.00
             586.44,357.00 564.76,357.89 560.00,356.00
             584.88,349.40 601.47,346.42 625.00,333.69
             672.18,308.18 706.30,265.52 720.74,214.00
             724.40,200.98 727.00,187.58 727.00,174.00 Z
           M 534.00,178.53
           C 544.59,176.80 553.58,178.14 560.61,187.00
             571.10,200.23 564.94,222.28 548.00,226.32
             542.10,227.72 533.26,227.20 528.00,224.00
             509.70,212.87 512.94,184.82 534.00,178.53 Z
           M 402.00,675.00
           C 395.28,673.95 392.07,671.62 386.00,669.00
             368.26,661.34 345.08,643.60 332.58,629.00
             317.77,611.71 305.96,591.79 299.03,570.00
             292.40,549.17 291.75,532.52 292.00,511.00
             292.49,469.62 317.33,424.04 349.00,398.26
             357.26,391.54 365.74,385.16 375.00,379.87
             412.76,358.33 460.48,351.68 502.00,365.51
             513.42,369.31 535.40,378.02 543.00,387.00
             543.00,387.00 521.00,383.10 521.00,383.10
             521.00,383.10 512.00,383.10 512.00,383.10
             512.00,383.10 501.00,382.00 501.00,382.00
             488.96,381.94 475.74,383.51 464.00,386.23
             406.16,399.66 360.36,443.71 344.85,501.00
             341.60,513.01 339.15,525.52 339.00,538.00
             338.90,546.69 339.14,555.38 340.18,564.00
             340.18,564.00 341.69,571.00 341.69,571.00
             346.25,595.42 355.94,619.70 370.43,640.00
             376.29,648.22 382.87,655.86 390.00,663.00
             390.00,663.00 402.00,675.00 402.00,675.00 Z
           M 717.00,456.16
           C 717.00,456.16 737.00,456.16 737.00,456.16
             737.00,456.16 746.00,456.98 746.00,456.98
             746.00,456.98 760.00,456.98 760.00,456.98
             760.00,456.98 775.00,456.00 775.00,456.00
             775.00,456.00 798.00,456.00 798.00,456.00
             798.00,456.00 815.00,457.00 815.00,457.00
             815.00,457.00 885.00,457.00 885.00,457.00
             885.00,457.00 907.00,456.00 907.00,456.00
             908.95,456.04 911.63,455.90 912.98,457.60
             914.22,459.17 915.00,473.25 915.00,476.00
             915.00,476.00 915.00,493.00 915.00,493.00
             915.00,493.00 914.00,515.00 914.00,515.00
             914.00,515.00 912.96,525.00 912.96,525.00
             912.96,525.00 912.96,534.00 912.96,534.00
             912.96,534.00 911.28,544.00 911.28,544.00
             907.06,577.06 900.83,603.53 889.69,635.00
             874.46,678.04 855.60,710.94 827.65,747.00
             817.53,760.06 807.64,770.36 796.00,782.00
             741.26,836.74 673.56,874.44 598.00,891.34
             598.00,891.34 550.00,898.96 550.00,898.96
             550.00,898.96 540.00,898.96 540.00,898.96
             540.00,898.96 528.00,900.00 528.00,900.00
             528.00,900.00 495.00,900.00 495.00,900.00
             473.75,899.97 443.93,894.26 423.00,889.50
             361.77,875.57 310.34,848.94 261.00,810.42
             213.31,773.19 178.19,727.54 150.74,674.00
             144.99,662.78 139.70,651.85 135.32,640.00
             135.32,640.00 121.13,596.00 121.13,596.00
             119.95,591.30 116.76,582.42 118.00,578.00
             142.06,628.34 175.51,675.30 217.00,712.83
             313.43,800.07 449.36,837.51 576.00,805.89
             595.34,801.07 614.55,795.44 633.00,787.77
             686.79,765.41 727.81,737.19 769.00,696.00
             793.49,671.51 812.98,645.74 830.60,616.00
             838.28,603.05 849.10,583.02 854.00,568.97
             854.00,568.97 800.96,568.97 800.96,568.97
             800.96,568.97 793.00,568.18 793.00,568.18
             788.82,567.89 776.97,569.57 773.00,571.12
             756.30,577.63 750.76,592.48 750.00,609.00
             750.00,609.00 717.00,609.00 717.00,609.00
             717.00,609.00 716.00,589.00 716.00,589.00
             716.00,589.00 716.00,504.00 716.00,504.00
             716.00,504.00 716.00,474.00 716.00,474.00
             716.00,474.00 717.00,456.16 717.00,456.16 Z" />
</svg>
